<svg xmlns="http://www.w3.org/2000/svg" width="16.914" height="16.914" viewBox="0 0 16.914 16.914"><path d="M9.957,18.414a8.457,8.457,0,1,1,8.457-8.457A8.433,8.433,0,0,1,9.957,18.414Zm0-15.376a6.919,6.919,0,1,0,6.919,6.919A6.89,6.89,0,0,0,9.957,3.038Z" transform="translate(-1.5 -1.5)" fill="#232931"/><path d="M17.557,18.252c-.634,0-1.057-.31-1.057-.775v-6.2c0-.465.423-.775,1.057-.775s1.057.31,1.057.775v6.2C18.614,17.942,18.191,18.252,17.557,18.252Z" transform="translate(-9.1 -5.919)" fill="#232931"/><path d="M17.477,18.614h-6.2c-.465,0-.775-.423-.775-1.057s.31-1.057.775-1.057h6.2c.465,0,.775.423.775,1.057S17.942,18.614,17.477,18.614Z" transform="translate(-5.919 -9.1)" fill="#232931"/></svg>