<svg xmlns="http://www.w3.org/2000/svg" width="25.6" height="20" viewBox="0 0 25.6 20"><g transform="translate(0 -4.5)"><path d="M13.1,29.373A3.912,3.912,0,0,0,13.7,27h9.528a3.912,3.912,0,0,0,.6,2.373h1.785c.658,0,1.191.354,1.191.791s-.533.791-1.191.791H11.316c-.658,0-1.191-.354-1.191-.791s.533-.791,1.191-.791Z" transform="translate(-5.662 -6.455)" fill="#232931"/><path d="M22.386,6.1H3.2a1.669,1.669,0,0,0-.964.232,1.216,1.216,0,0,0-.407.484,2.348,2.348,0,0,0-.23.9v9.611a1.681,1.681,0,0,0,.232.966,1.222,1.222,0,0,0,.483.408,2.337,2.337,0,0,0,.861.23H22.4a1.669,1.669,0,0,0,.964-.232,1.216,1.216,0,0,0,.407-.484A2.354,2.354,0,0,0,24,17.36V7.709a1.681,1.681,0,0,0-.232-.966,1.212,1.212,0,0,0-.483-.408,2.331,2.331,0,0,0-.9-.23ZM22.4,4.5H3.2A3.14,3.14,0,0,0,0,7.709v9.627a3.137,3.137,0,0,0,3.2,3.209H22.4a3.14,3.14,0,0,0,3.2-3.209V7.709A3.137,3.137,0,0,0,22.4,4.5Z" fill="#232931" fill-rule="evenodd"/></g></svg>