<svg xmlns="http://www.w3.org/2000/svg" width="56.875" height="65" viewBox="0 0 56.875 65"><path d="M56.875,9.286v5.8c0,5.115-12.738,9.286-28.437,9.286S0,20.2,0,15.089v-5.8C0,4.171,12.738,0,28.438,0S56.875,4.171,56.875,9.286Zm0,13.058V35.4c0,5.115-12.738,9.286-28.437,9.286S0,40.517,0,35.4V22.344c6.11,4.207,17.292,6.166,28.438,6.166S50.765,26.551,56.875,22.344Zm0,20.313V55.714C56.875,60.829,44.137,65,28.438,65S0,60.829,0,55.714V42.656c6.11,4.207,17.292,6.166,28.438,6.166S50.765,46.863,56.875,42.656Z" fill="#a1ebff"/></svg>