<svg xmlns="http://www.w3.org/2000/svg" width="45" height="65" viewBox="0 0 45 65"><path d="M22.5,10.157A12.244,12.244,0,0,0,10.227,22.344a2.046,2.046,0,0,0,4.091,0A8.162,8.162,0,0,1,22.5,14.219a2.031,2.031,0,1,0,0-4.063ZM12.28,58.294a2.016,2.016,0,0,0,.342,1.123l3.133,4.677a2.048,2.048,0,0,0,1.7.906h10.08a2.048,2.048,0,0,0,1.7-.906l3.133-4.677a2.026,2.026,0,0,0,.342-1.123l.007-5.482H12.275l.005,5.482ZM22.5,0A22.3,22.3,0,0,0,5.569,37.044a36.271,36.271,0,0,1,6.7,11.7v.007h6.136v-.014a6.012,6.012,0,0,0-.275-1.786,39.971,39.971,0,0,0-7.947-13.923A16.22,16.22,0,0,1,22.5,6.1a16.325,16.325,0,0,1,16.364,16.25,16.133,16.133,0,0,1-4.045,10.682,40.023,40.023,0,0,0-7.938,13.9,5.992,5.992,0,0,0-.284,1.815v.013h6.136v-.007a36.271,36.271,0,0,1,6.7-11.7A22.15,22.15,0,0,0,45,22.344,22.424,22.424,0,0,0,22.5,0Z" fill="#ffba7a"/></svg>