<svg xmlns="http://www.w3.org/2000/svg" width="26.667" height="20" viewBox="0 0 26.667 20"><path d="M25.833,21.167H3.333V5.333A.833.833,0,0,0,2.5,4.5H.833A.833.833,0,0,0,0,5.333v17.5A1.667,1.667,0,0,0,1.667,24.5H25.833a.833.833,0,0,0,.833-.833V22A.833.833,0,0,0,25.833,21.167Zm-1.667-15H18.018A1.25,1.25,0,0,0,17.134,8.3l1.687,1.687L15,13.81,11.179,9.988a1.666,1.666,0,0,0-2.357,0L5.244,13.566a.834.834,0,0,0,0,1.179l1.178,1.178a.834.834,0,0,0,1.179,0l2.4-2.4,3.821,3.821a1.666,1.666,0,0,0,2.357,0l5-5,1.687,1.687A1.25,1.25,0,0,0,25,13.149V7a.832.832,0,0,0-.833-.833Z" transform="translate(0 -4.5)" fill="#eee"/></svg>