<svg xmlns="http://www.w3.org/2000/svg" width="33.7" height="45" viewBox="0 0 33.7 45"><path d="M22.254,8.352a4.184,4.184,0,0,1-3-1.228A3.945,3.945,0,0,1,17.98,4.175a3.945,3.945,0,0,1,1.278-2.948,4.18,4.18,0,0,1,3-1.227A4.03,4.03,0,0,1,25.2,1.228a4.012,4.012,0,0,1,1.228,2.948A4.025,4.025,0,0,1,25.2,7.125a4.025,4.025,0,0,1-2.948,1.228ZM14.64,37.435,0,34.585.884,30.36,11.1,32.423l3.341-17L10.71,16.9v7.173H6.485V14.247L17.391,9.628a4.983,4.983,0,0,0,.835-.1,4.983,4.983,0,0,1,.835-.1A4.114,4.114,0,0,1,22.6,11.494l2.162,3.341a9.6,9.6,0,0,0,3.684,3.636A10.393,10.393,0,0,0,33.7,19.846V24.07a14.553,14.553,0,0,1-11.5-5.207l-1.278,6.289,4.421,4.127V45H21.122V32.423L16.8,28.3Z" fill="#cc8139"/></svg>