<svg xmlns="http://www.w3.org/2000/svg" width="20" height="20" viewBox="0 0 20 20"><g transform="translate(-5917 -1668)"><g transform="translate(5917 1668)"><path d="M10,23H6a2.946,2.946,0,0,1-3-3V6A2.946,2.946,0,0,1,6,3h4a.945.945,0,0,1,1,1,.945.945,0,0,1-1,1H6A.945.945,0,0,0,5,6V20a.945.945,0,0,0,1,1h4a1,1,0,0,1,0,2Zm7-4a.908.908,0,0,1-.7-.3.967.967,0,0,1,0-1.4L20.6,13,16.3,8.7a.99.99,0,0,1,1.4-1.4l5,5a.967.967,0,0,1,0,1.4l-5,5A.908.908,0,0,1,17,19Z" transform="translate(-3 -3)" fill="#fff"/><path d="M25.486,18.575H13.037a1.037,1.037,0,0,1,0-2.075H25.486a1.037,1.037,0,0,1,0,2.075Z" transform="translate(-6.523 -7.537)" fill="#fff"/></g></g></svg>