<svg xmlns="http://www.w3.org/2000/svg" width="130" height="129.997" viewBox="0 0 130 129.997"><g transform="translate(-8084 -330)"><path d="M65,.563a65,65,0,1,0,65,65A64.986,64.986,0,0,0,65,.563Zm0,25.161A23.066,23.066,0,1,1,41.934,48.79,23.066,23.066,0,0,1,65,25.724Zm0,90.161A50.226,50.226,0,0,1,26.6,98.011,29.222,29.222,0,0,1,52.42,82.337a6.434,6.434,0,0,1,1.86.287A34.729,34.729,0,0,0,65,84.432a34.616,34.616,0,0,0,10.72-1.808,6.434,6.434,0,0,1,1.86-.287A29.226,29.226,0,0,1,103.4,98.011,50.241,50.241,0,0,1,65,115.881Z" transform="translate(8084 329.437)" fill="#4ecca3"/></g></svg>