<svg xmlns="http://www.w3.org/2000/svg" width="92.857" height="65" viewBox="0 0 92.857 65"><path d="M27.857,34.3a16.25,16.25,0,1,0-16.25-16.25A16.241,16.241,0,0,0,27.857,34.3ZM39,38.943H37.8a22.434,22.434,0,0,1-19.877,0h-1.2A16.72,16.72,0,0,0,0,55.657v4.179A6.965,6.965,0,0,0,6.964,66.8H48.75a6.965,6.965,0,0,0,6.964-6.964V55.657A16.719,16.719,0,0,0,39,38.943ZM69.643,34.3A13.929,13.929,0,1,0,55.714,20.371,13.933,13.933,0,0,0,69.643,34.3Zm6.964,4.643h-.552a18.293,18.293,0,0,1-12.825,0h-.552A16.126,16.126,0,0,0,54.6,41.177a21.228,21.228,0,0,1,5.76,14.481v5.571c0,.32-.072.624-.088.929H85.893a6.965,6.965,0,0,0,6.964-6.964,16.241,16.241,0,0,0-16.25-16.25Z" transform="translate(0 -1.8)" fill="#71ebc2"/></svg>